<?xml version="1.0" standalone="no"?><!DOCTYPE svg PUBLIC "-//W3C//DTD SVG 1.1//EN" "http://www.w3.org/Graphics/SVG/1.1/DTD/svg11.dtd"><svg t="1715341250139" class="icon" viewBox="0 0 1024 1024" version="1.1" xmlns="http://www.w3.org/2000/svg" p-id="10164" xmlns:xlink="http://www.w3.org/1999/xlink" width="200" height="200"><path d="M808.1 110.1s-96.5 74.7-108.5 121.2c-6.1 32.3 10 56.5 42.2 64.6 16 4 58.3 0 66.3-58.6 10.1-58.5 0-127.2 0-127.2M701.5 358.5s-4.1-48.5 84.3-50.4c80.5-4.1 110.7-10.1 124.8-30.3-4.1 14.2-52.2 82.9-118.6 113.1-36.2 14.1-88.4 14.1-90.5-32.4m-60.3 94.9s14.1-36.4 82.4-36.4c64.3 2.1 122.7-12.1 132.7-24.2-2 14.1-68.4 96.9-106.5 117.1-46.3 26.2-74.4 26.2-92.4 10-8.1-9.9-28.3-28.1-16.2-66.5m-58.3 125.2s10.1-40.3 66.4-38.4c52.3-2 112.5-4.1 148.7-28.3-19.9 66.6-94.4 117.1-132.7 129.2-42.2 16.2-70.3 14.2-82.4-6-10-22 0-56.5 0-56.5m-44.2 107.1c10-8 30.1-16.2 58.3-16.2 50.3 0 110.5-18 126.6-24.1 16.1-20.2-36.2 62.6-68.3 84.8-30.2 26.3-74.4 46.4-110.6 30.2-36.1-18.1-30.1-58.6-6-74.7m82.4-547.3s22.2 103.1 62.3 129.2c40.2 26.3 12.1 72.7 2.1 80.8-12.1 6.2-70.4 24.3-92.5-28.2-24.1-52.6-6.1-155.6 28.1-181.8m-62.3 139.3s12.1 74.7 60.2 147.5c14.1 30.2-26.1 50.4-28.1 50.4-36.1 10.1-74.3 0-78.4-54.5-2-54.5 2.1-96.9 46.3-143.4M488.5 403s10 40.3 34.2 74.7c18.1 24.1 44.3 52.4 48.3 62.5 10 24.3-2 44.4-18.1 50.5-20.1 8-58.3 14.1-72.3-8.1-16.3-22.1-42.4-100.9 7.9-179.6m-68.4 117s46.3 74.9 82.4 119.3c30.2 48.5 8 76.7-22.1 80.7-34.2 2.1-56.3 8-68.4-38.4-2-14.1-20.1-56.5 8.1-161.6m34.2 216.2s54.3 28.3 64.3 26.3c10-2.2-100.6 151.4-100.6 151.4l-34.2-4c0.1-0.1 70.5-127.3 70.5-173.7M215 291.9s-22.1 52.5-12 111.1c6 32.3 50.2 24.2 56.3 20.1 6-4 34.2-22.2 12.1-58.6-20.2-38.3-56.4-72.6-56.4-72.6m46.3 181.8s-18.1-26.3 26.2-58.6c38.2-28.2 46.2-40.4 58.3-58.6 2 22.2 2 80.7-18 107-18.3 24.3-52.5 28.3-66.5 10.2m8 72.6s0-28.2 30.1-44.4c38.2-22.2 68.4-52.5 66.4-62.6 2 14.2 6.1 76.8-18.1 117.1-14.1 26.2-30.2 30.3-42.2 30.3-30.2-2.1-34.2-26.2-36.2-40.4m20.1 97.1s-2-24.3 22.2-44.6c30.1-20.2 58.3-38.4 70.3-66.6 8.1 12.1 10 84.8-16 125.2-16.1 24.2-24.1 24.2-46.3 16.2-30.2-8-30.2-30.2-30.2-30.2m22.1 80.7c2-8.1 14.1-22.3 30.1-32.4 16-10.1 48.2-36.3 58.3-56.5 4 18.1 2 44.4-4 72.7-6 26.2-18.1 56.5-48.3 58.5-26 2-40.1-24.1-36.1-42.3m-197-347.4s58.3 52.5 94.5 52.5c36.2 2 38.2 30.2 32.1 44.4-4 8-26.2 40.3-62.3 18.1-36.1-22.1-72.4-86.7-64.3-115m26.1 102.9s40.2 48.5 100.5 56.5c30.1 2.1 24.1 36.4 14.1 46.5-16.1 18.2-46.2 14.2-66.3 0-34.2-30.2-46.2-52.5-48.3-103m16.1 99s32.2 30.3 106.6 48.5c28.1 8.1 22.1 30.3 14.1 40.4-8.1 12.1-22.2 24.2-44.3 18.1-32.2-8-70.3-44.4-76.4-107m12.1 90.9S211 689.7 279.4 712c38.2 16.1 32.2 44.5 16.1 56.5-16.1 16.2-36.2 20.3-62.3-2.1-28.2-30.2-48.3-62.5-64.4-96.9m116.6 113.1s44.2-2 48.2-8c4-4.1 10 123.1 10 123.1l-20.1 10.2c0.1 1.9-16-97-38.1-125.3m0 0" fill="#1a8e21" p-id="10165"></path></svg>